<svg width="480px" height="353px" viewBox="0 0 480 353" fill="none" xmlns="http://www.w3.org/2000/svg" transform="rotate(0) scale(1, 1)">
<path d="M479.613 177.51H412.472C359.61 177.51 314.129 213.334 290.336 260.54C267.644 305.561 233.824 352.097 190.972 352.097C137.085 352.097 95.012 278.506 72.127 226.88C59.5413 198.489 32.403 178.149 1.46387 177.525C0.657013 177.509 6.10352e-05 176.856 6.10352e-05 176.049C6.10352e-05 175.242 0.657043 174.589 1.4639 174.573C32.6496 173.95 60.0009 153.451 72.7078 124.843C95.63 73.2367 137.63 0 191.387 0C234.239 0 268.059 46.5371 290.751 91.558C314.543 138.763 360.024 174.588 412.887 174.588H479.613V177.51Z" fill="#000000"/>
</svg>