<svg width="811" height="654" viewBox="0 0 811 654" fill="none" xmlns="http://www.w3.org/2000/svg">
<path d="M677.172 224.015L787.5 324L677.147 417.603C676.497 418.154 675.5 417.692 675.5 416.84V324V224.756C675.5 223.888 676.529 223.432 677.172 224.015Z" fill="#CEC0AD"/>
<path d="M107.5 324H247.171C254.201 324 260.407 319.412 262.468 312.691L306.005 170.707C310.962 154.542 334.34 156.113 337.089 172.796L386.418 472.145C389.243 489.288 413.524 490.273 417.729 473.416L451.975 336.128C453.753 329.001 460.154 324 467.499 324H787.5M787.5 324L677.172 224.015C676.529 223.432 675.5 223.888 675.5 224.756V416.84C675.5 417.692 676.497 418.154 677.147 417.603L787.5 324Z" stroke="#CEC0AD" stroke-width="31" stroke-linecap="round"/>
<path d="M584 161.217C548.363 105.909 495.853 63.566 434.26 40.4694C372.667 17.3729 305.272 14.7531 242.073 32.9989C178.874 51.2446 123.237 89.3838 83.4175 141.759C43.5976 194.133 21.7155 257.954 21.0172 323.752C20.319 389.55 40.8418 453.82 79.5411 507.029C118.24 560.238 173.055 599.55 235.852 619.134C298.65 638.717 366.085 637.53 428.155 615.746C490.224 593.963 543.621 552.745 580.424 498.206" stroke="#CEC0AD" stroke-width="41" stroke-linecap="round"/>
</svg>
