<svg width="12" height="52" viewBox="0 0 12 52" fill="none" xmlns="http://www.w3.org/2000/svg">
<path d="M1.79477 8.13935C2.03647 5.6962 3.04609 3.39247 4.67867 1.55888V1.55888C5.41781 0.72874 6.71552 0.728739 7.45466 1.55888L7.51621 1.62801C9.1138 3.4223 10.1426 5.65057 10.4722 8.0303L10.9944 11.8007C12.3251 21.4084 12.3251 31.1536 10.9944 40.7613L10.4639 44.5917C10.1386 46.9405 9.17822 49.1559 7.68637 50.999L7.6175 51.0841C6.81896 52.0706 5.31438 52.0706 4.51583 51.0841V51.0841C2.98333 49.1908 2.03887 46.8901 1.79907 44.4661L1.04215 36.8152C0.349076 29.8095 0.349076 22.7525 1.04215 15.7468L1.79477 8.13935Z" fill="#CEC0AD"/>
</svg>
