<svg width="94px" height="59px" viewBox="0 0 94 59" fill="none" xmlns="http://www.w3.org/2000/svg" transform="rotate(0) scale(1, 1)">
<path d="M64.7948 11.1393C65.0365 8.6962 66.0461 6.39247 67.6787 4.55888V4.55888C68.4178 3.72874 69.7155 3.72874 70.4547 4.55888L70.5162 4.62801C72.1138 6.4223 73.1426 8.65057 73.4722 11.0303L73.9944 14.8007C75.3251 24.4084 75.3251 34.1536 73.9944 43.7613L73.4639 47.5917C73.1386 49.9405 72.1782 52.1559 70.6864 53.999L70.6175 54.0841C69.819 55.0706 68.3144 55.0706 67.5158 54.0841V54.0841C65.9833 52.1908 65.0389 49.8901 64.7991 47.4661L64.0422 39.8152C63.3491 32.8095 63.3491 25.7525 64.0422 18.7468L64.7948 11.1393Z" fill="#000000"/>
<path d="M77.2823 14.1321C77.4245 12.448 78.0429 10.8391 79.0654 9.49339V9.49339C79.6356 8.74285 80.7644 8.74285 81.3346 9.49339L81.377 9.54915C82.3742 10.8616 83.002 12.4169 83.1955 14.0538L83.6352 17.7746C84.5419 25.4464 84.5419 33.1982 83.6352 40.87L83.1885 44.6499C82.999 46.2529 82.4204 47.7852 81.5031 49.1134L81.4564 49.1809C80.8494 50.0598 79.5506 50.0598 78.9436 49.1809V49.1809C77.9977 47.8114 77.4263 46.2184 77.2863 44.5598L76.7598 38.3231C76.2542 32.3332 76.2542 26.3114 76.7598 20.3215L77.2823 14.1321Z" fill="#000000"/>
<path d="M85.7402 17.8641C85.8014 16.9542 86.0797 16.0721 86.5518 15.2918V15.2918C86.9072 14.7043 87.7595 14.7043 88.1149 15.2918L88.1372 15.3287C88.5954 16.086 88.8764 16.937 88.9593 17.8182L89.2562 20.9727C89.751 26.23 89.751 31.5221 89.2562 36.7793L88.9547 39.9829C88.8746 40.8337 88.6208 41.6591 88.209 42.4078L88.1851 42.4513C87.8158 43.1228 86.8509 43.1228 86.4815 42.4513V42.4513C86.0546 41.675 85.8025 40.8147 85.7431 39.9307L85 28.876L85.7402 17.8641Z" fill="#000000"/>
<path d="M93.5559 23.3185C93.5192 22.7725 93.3522 22.2433 93.0689 21.7751V21.7751C92.8557 21.4226 92.3443 21.4226 92.1311 21.7751L92.1177 21.7972C91.8428 22.2516 91.6742 22.7622 91.6244 23.2909L91.4463 25.1836C91.1494 28.338 91.1494 31.5132 91.4463 34.6676L91.6272 36.5898C91.6752 37.1002 91.8275 37.5954 92.0746 38.0447L92.0889 38.0708C92.3105 38.4737 92.8895 38.4737 93.1111 38.0708V38.0708C93.3673 37.605 93.5185 37.0888 93.5541 36.5584L94 29.9256L93.5559 23.3185Z" fill="#000000"/>
<path d="M50 3C50 1.34315 51.3431 0 53 0H57.3001C57.8993 0 58.4378 0.365642 58.6588 0.922549V0.922549C65.9433 19.2779 65.9433 39.7221 58.6588 58.0775V58.0775C58.4378 58.6344 57.8993 59 57.3001 59H53C51.3431 59 50 57.6569 50 56V3Z" fill="#000000"/>
<path d="M0 0H42C43.1046 0 44 0.895431 44 2V57C44 58.1046 43.1046 59 42 59H22C9.84974 59 0 49.1503 0 37V0Z" fill="#000000"/>
</svg>