<svg width="9" height="42" viewBox="0 0 9 42" fill="none" xmlns="http://www.w3.org/2000/svg">
<path d="M1.28234 6.13208C1.42451 4.44799 2.04293 2.83912 3.06537 1.49339V1.49339C3.63561 0.742847 4.76439 0.742846 5.33463 1.49339L5.37699 1.54915C6.37415 2.8616 7.00202 4.41693 7.19548 6.05383L7.63522 9.77462C8.54192 17.4464 8.54192 25.1982 7.63522 32.87L7.18849 36.6499C6.99904 38.2529 6.42043 39.7852 5.50308 41.1134L5.45644 41.1809C4.84938 42.0598 3.55063 42.0598 2.94356 41.1809V41.1809C1.99765 39.8114 1.42634 38.2184 1.28633 36.5598L0.759833 30.3231C0.254177 24.3332 0.254177 18.3114 0.759833 12.3215L1.28234 6.13208Z" fill="#CEC0AD"/>
</svg>
