<svg width="3" height="18" viewBox="0 0 3 18" fill="none" xmlns="http://www.w3.org/2000/svg">
<path d="M2.55585 2.31849C2.51915 1.77252 2.35219 1.24328 2.06893 0.775093V0.775093C1.85567 0.4226 1.34433 0.4226 1.13107 0.775093L1.11767 0.797241C0.842781 1.2516 0.674155 1.76222 0.624398 2.29093L0.446273 4.18364C0.149413 7.33799 0.149413 10.5132 0.446273 13.6676L0.62717 15.5898C0.675212 16.1002 0.827493 16.5954 1.07459 17.0447L1.08892 17.0708C1.31052 17.4737 1.88948 17.4737 2.11108 17.0708V17.0708C2.36726 16.605 2.51847 16.0888 2.55413 15.5584L3 8.92562L2.55585 2.31849Z" fill="#CEC0AD"/>
</svg>
