<svg width="861" height="861" viewBox="0 0 861 861" fill="none" xmlns="http://www.w3.org/2000/svg">
<path d="M198.328 348.515L88 448.5L198.353 542.103C199.003 542.654 200 542.192 200 541.34V448.5V349.256C200 348.388 198.971 347.932 198.328 348.515Z" fill="#AD9676"/>
<path d="M768 448.5H628.329C621.299 448.5 615.093 443.912 613.032 437.191L569.495 295.207C564.538 279.042 541.16 280.613 538.411 297.296L489.082 596.645C486.257 613.788 461.976 614.773 457.771 597.916L423.525 460.628C421.747 453.501 415.346 448.5 408.001 448.5H88M88 448.5L198.328 348.515C198.971 347.932 200 348.388 200 349.256V541.34C200 542.192 199.003 542.654 198.353 542.103L88 448.5Z" stroke="#AD9676" stroke-width="31" stroke-linecap="round"/>
<circle cx="430.5" cy="430.5" r="414" stroke="#AD9676" stroke-width="33"/>
</svg>
