<svg width="480px" height="353px" viewBox="0 0 480 353" fill="none" xmlns="http://www.w3.org/2000/svg" transform="rotate(0) scale(1, 1)">
<path d="M6.10352e-05 177.51H67.1408C120.003 177.51 165.484 213.334 189.277 260.54C211.969 305.561 245.789 352.097 288.641 352.097C342.528 352.097 384.601 278.506 407.486 226.88C420.072 198.489 447.21 178.149 478.149 177.525C478.956 177.509 479.613 176.856 479.613 176.049C479.613 175.242 478.956 174.589 478.149 174.573C446.963 173.95 419.612 153.451 406.905 124.843C383.983 73.2367 341.983 0 288.226 0C245.374 0 211.554 46.5371 188.863 91.558C165.07 138.763 119.589 174.588 66.7262 174.588H6.10352e-05V177.51Z" fill="#000000"/>
</svg>