<svg width="1338" height="565" viewBox="0 0 1338 565" fill="none" xmlns="http://www.w3.org/2000/svg">
<path d="M663.831 0.337279C735.126 0.57576 776.177 140.707 794.11 222.784C801.356 255.95 830.2 280.827 864.149 280.827C892.456 280.827 917.597 262.917 929.42 237.197C953.19 185.485 998.353 106.239 1051.91 106.239C1094.4 106.239 1130.6 156.101 1155.1 202.531C1178.88 247.589 1223.34 280.827 1274.29 280.827H1337.61V283.749H1306.56H1273.87C1222.93 283.749 1178.47 316.987 1154.69 362.045C1130.19 408.475 1093.99 458.337 1051.5 458.337C997.881 458.337 952.678 378.921 928.929 327.212C917.16 301.589 892.115 283.749 863.918 283.749C830.102 283.749 801.369 308.53 794.158 341.569C776.252 423.615 735.191 564 663.831 564.239C592.555 564.478 556.479 424.221 541.454 341.979C535.423 308.967 507.181 283.749 473.623 283.749C445.643 283.749 420.956 301.912 409.892 327.612C387.627 379.329 344.476 458.337 288.641 458.337C245.789 458.337 211.969 411.8 189.277 366.779C165.484 319.574 120.003 283.749 67.1408 283.749H0V280.827H66.7262C119.589 280.827 165.07 245.003 188.863 197.797C211.554 152.776 245.374 106.239 288.226 106.239C344.001 106.239 387.119 185.076 409.405 236.796C420.521 262.592 445.303 280.827 473.393 280.827C507.082 280.827 535.433 255.512 541.495 222.372C556.545 140.099 592.62 0.0990774 663.831 0.337279Z" fill="#CEC0AD"/>
</svg>
