<svg width="472px" height="565px" viewBox="0 0 472 565" fill="none" xmlns="http://www.w3.org/2000/svg" transform="rotate(0) scale(1, 1)">
<path d="M235.719 0.638304C295.257 0.83746 333.704 98.598 355.208 178.635C370.272 234.703 414.311 278 471.437 280.966V284.213C414.311 287.179 370.272 330.476 355.208 386.544C333.704 466.58 295.257 564.341 235.719 564.54C176.22 564.739 141.25 467.039 122.578 386.906C109.198 329.486 60.2632 284.792 1.46661 284.06C0.65965 284.05 0 283.396 0 282.589C0 281.782 0.65965 281.129 1.46661 281.119C60.2632 280.387 109.198 235.692 122.578 178.272C141.25 98.1396 176.22 0.439282 235.719 0.638304Z" fill="#000000"/>
</svg>