<svg width="998" height="654" viewBox="0 0 998 654" fill="none" xmlns="http://www.w3.org/2000/svg">
<path d="M585.672 224.015L696 324L585.647 417.603C584.997 418.154 584 417.692 584 416.84V324V224.756C584 223.888 585.029 223.432 585.672 224.015Z" fill="#CEC0AD"/>
<path d="M16 324H155.671C162.701 324 168.907 319.412 170.968 312.691L214.505 170.707C219.462 154.542 242.84 156.113 245.589 172.796L294.918 472.145C297.743 489.288 322.024 490.273 326.229 473.416L360.475 336.128C362.253 329.001 368.654 324 375.999 324H696M696 324L585.672 224.015C585.029 223.432 584 223.888 584 224.756V416.84C584 417.692 584.997 418.154 585.647 417.603L696 324Z" stroke="#CEC0AD" stroke-width="31" stroke-linecap="round"/>
<path d="M414.5 492.783C450.137 548.091 502.647 590.434 564.24 613.531C625.833 636.627 693.228 639.247 756.427 621.001C819.626 602.755 875.263 564.616 915.083 512.241C954.902 459.867 976.784 396.046 977.483 330.248C978.181 264.45 957.658 200.18 918.959 146.971C880.26 93.7624 825.445 54.4502 762.648 34.8664C699.85 15.2826 632.415 16.4704 570.345 38.2537C508.276 60.037 454.879 101.255 418.076 155.794" stroke="#CEC0AD" stroke-width="41" stroke-linecap="round"/>
</svg>
