<svg width="339" height="224" viewBox="0 0 339 224" fill="none" xmlns="http://www.w3.org/2000/svg">
<path fill-rule="evenodd" clip-rule="evenodd" d="M269.089 223.509H69.8046C31.697 223.509 0.804688 192.617 0.804688 154.509V0L269.377 1.12137C307.372 1.28001 338.089 32.1256 338.089 70.1208V154.509C338.089 192.617 307.196 223.509 269.089 223.509ZM163 129C172.389 129 180 121.389 180 112C180 102.611 172.389 95 163 95C153.611 95 146 102.611 146 112C146 121.389 153.611 129 163 129ZM86 112C86 121.389 78.3888 129 69 129C59.6111 129 52 121.389 52 112C52 102.611 59.6111 95 69 95C78.3888 95 86 102.611 86 112ZM261 129C270.389 129 278 121.389 278 112C278 102.611 270.389 95 261 95C251.611 95 244 102.611 244 112C244 121.389 251.611 129 261 129Z" fill="#CEC0AD"/>
</svg>
