<svg width="1292" height="224" viewBox="0 0 1292 224" fill="none" xmlns="http://www.w3.org/2000/svg">
<path fill-rule="evenodd" clip-rule="evenodd" d="M0 0L41.6687 106.621H390.095V107.03H393.331L435.16 0H320.385L282.361 85.497L268.278 0H217.58H172.515L159.84 85.497L119.704 0H0ZM389.638 116.479L366.154 116.479L45.5213 116.479L87.3496 223.509H190.581L217.58 174.219L244.579 223.509H347.81L389.638 116.479ZM437.727 116.479H497.124H524.342H551.561H578.779H605.997L631.276 146.518C638.829 155.494 652.631 155.548 660.254 146.632L686.034 116.479H702.983L748.503 223.509H645.272L616.124 174.219H514.024L495.438 223.509H392.207L437.727 116.479ZM698.964 107.03H686.034H658.816H631.868H605.997L565.669 56.1277C558.463 47.0315 544.658 47.0315 537.452 56.1277L497.124 107.03H441.746L487.266 0H569.5H653.444L698.964 107.03ZM740.294 116.479L787.462 223.509H848.712H909.962L957.129 116.479L740.294 116.479ZM846.207 107.25L736.145 107.064L688.962 0H806.462L846.207 107.25ZM961.112 107.443L851.213 107.258L890.962 0H1008.46L961.112 107.443ZM1291.96 108L1038.46 107.573V0H1291.96V62H1144.46V82H1291.96V108ZM1291.96 116.479H1038.46V223.509H1291.96V162.509H1144.46V143H1291.96V116.479Z" fill="black"/>
</svg>
