<svg width="1440" height="224" viewBox="0 0 1440 224" fill="none" xmlns="http://www.w3.org/2000/svg">
<path fill-rule="evenodd" clip-rule="evenodd" d="M87.3496 223.509L45.5213 116.479H389.638L347.81 223.509H244.579L217.58 174.219L190.581 223.509H87.3496ZM435.16 0L393.491 106.621H41.6687L0 0H119.704L159.84 85.497L172.515 0H217.58H268.278L282.361 85.497L320.385 0H435.16ZM459.805 0L728.377 1.12137C766.372 1.28001 797.089 32.1256 797.089 70.1208V154.509C797.089 192.617 766.196 223.509 728.089 223.509H528.805C490.697 223.509 459.805 192.617 459.805 154.509V0ZM1116.77 106.621V70.4083C1116.77 32.3006 1085.88 1.40826 1047.77 1.40826H821.734V106.621H1116.77ZM1116.19 116.479H821.734V223.509H941.438V174.219L982.982 223.509H1116.77L1065.37 160.136C1091.12 160.136 1112.45 141.193 1116.19 116.479ZM1147.05 116.479H1322.01L1439.27 223.509H1318.15L1241.4 160.136V184.077V223.509H1147.05V116.479ZM1325.03 106.621H1147.05V1.40826H1241.4V65.0769L1318.15 1.40826H1439.27L1325.03 106.621ZM622 129C631.389 129 639 121.389 639 112C639 102.611 631.389 95 622 95C612.611 95 605 102.611 605 112C605 121.389 612.611 129 622 129ZM545 112C545 121.389 537.389 129 528 129C518.611 129 511 121.389 511 112C511 102.611 518.611 95 528 95C537.389 95 545 102.611 545 112ZM720 129C729.389 129 737 121.389 737 112C737 102.611 729.389 95 720 95C710.611 95 703 102.611 703 112C703 121.389 710.611 129 720 129Z" fill="black"/>
</svg>
