<svg width="5" height="29" viewBox="0 0 5 29" fill="none" xmlns="http://www.w3.org/2000/svg">
<path d="M0.740243 3.86415C0.801413 2.95419 1.07969 2.07214 1.55178 1.29182V1.29182C1.90721 0.704333 2.75945 0.704333 3.11489 1.29182L3.13722 1.32874C3.59537 2.086 3.87641 2.93704 3.95934 3.81821L4.25621 6.97274C4.75098 12.23 4.75098 17.5221 4.25621 22.7793L3.95472 25.9829C3.87465 26.8337 3.62085 27.6591 3.20902 28.4078L3.18513 28.4513C2.81579 29.1228 1.85087 29.1228 1.48153 28.4513V28.4513C1.05457 27.675 0.802543 26.8147 0.743121 25.9307L0 14.876L0.740243 3.86415Z" fill="#CEC0AD"/>
</svg>
